PathFileType	4	(X/Y/Z)	pose_F01_0-95.trc
DataRate	CameraRate	NumFrames	NumMarkers	Units	OrigDataRate	OrigDataStartFrame	OrigNumFrames
30	30	9	21	m	30	59	95
Frame#	Time	CHip			RHip			RKnee			RAnkle			RBigToe			RSmallToe			RHeel			LHip			LKnee			LAnkle			LBigToe			LSmallToe			LHeel			Neck			Nose			RShoulder			RElbow			RWrist			LShoulder			LElbow			LWrist			
		X1	Y1	Z1	X2	Y2	Z2	X3	Y3	Z3	X4	Y4	Z4	X5	Y5	Z5	X6	Y6	Z6	X7	Y7	Z7	X8	Y8	Z8	X9	Y9	Z9	X10	Y10	Z10	X11	Y11	Z11	X12	Y12	Z12	X13	Y13	Z13	X14	Y14	Z14	X15	Y15	Z15	X16	Y16	Z16	X17	Y17	Z17	X18	Y18	Z18	X19	Y19	Z19	X20	Y20	Z20	X21	Y21	Z21	
59	1.9666666666666666	-0.16891483913925812	1.8438194186250965	-0.6871252391060664	-0.17688609278323067	1.844965911893468	-0.6334332230760643	-0.18729281774883574	1.7127065070896565	-0.5805611301573806	-0.17420055479711097	1.5894607572096218	-0.5708483819521949	-0.20680118307926826	1.5601973481346552	-0.5114147734263511	-0.19936205596902537	1.5672340932963198	-0.49774721423991675	-0.16586785443034105	1.5776951435182507	-0.5867931646501389	-0.15887802107603122	1.8428781490184738	-0.7459550623743373	-0.1652404405802123	1.710047685977091	-0.7131432202265418	-0.1559570510154304	1.5714320927652004	-0.7267266650255269	-0.190414641573426	1.5385318314684768	-0.6594775245363035	-0.18641006324132386	1.5377169004007307	-0.6924538796412155	-0.14333069120565353	1.5573086855449592	-0.7415340958759331	-0.13990185221453794	2.0031071811397876	-0.7688888489785363	-0.17367138177113275	2.0471047330908982	-0.7031709793382711	-0.14431486902525442	2.003527098595527	-0.7097634284496166	-0.18024042949033642	1.9411921637982823	-0.5995489000665462	-0.17897809138872411	1.9906816438155084	-0.6581422897211374	-0.13987911033993736	2.00442111100003	-0.8264133963129211	-0.20827829524959746	1.959551845345317	-0.745159614907272	-0.2012583252089294	1.9939877602581901	-0.6832800294445771
60	2.0	-0.16621811979379922	1.847476429315815	-0.6900259600959457	-0.17509331340351578	1.8486448251918264	-0.6393525712274907	-0.18226849182588886	1.7121899543448018	-0.6032039642406981	-0.16887595486430282	1.5874204770805838	-0.6107784289165457	-0.19685950249437584	1.556353885776457	-0.5477794099421339	-0.19370602443416945	1.5646154502417575	-0.5386790160664157	-0.16450370736517786	1.5743464093798911	-0.622631062373006	-0.15822057470792672	1.8463948789255031	-0.7466227522154713	-0.167359920989849	1.7149737826117946	-0.7157518209666922	-0.15539016410052775	1.5740253977563903	-0.7278206094573527	-0.19266307034753327	1.5385965757246571	-0.6572658122022669	-0.18658748183352059	1.5384871394203945	-0.6924101396132205	-0.1431600467506268	1.5600920511628245	-0.7418851759407555	-0.13904904647868083	2.0044035679144194	-0.777366160995081	-0.1709888339130983	2.047651183547262	-0.7138291259571871	-0.14662479469550846	2.0033941125520456	-0.7185314862561999	-0.17901042652351318	1.9389642462396532	-0.604810426638104	-0.18143327538283935	1.9919089059048702	-0.6670639212352892	-0.13365601150805578	2.007212791932146	-0.8367440313957424	-0.19460488604251164	1.9591882509449354	-0.7590699149378062	-0.19729785953189094	2.0072559305572413	-0.7077685933143152
61	2.033333333333333	-0.16925485324115863	1.8464711746449727	-0.6874804604729193	-0.18039095307525593	1.8465069267434253	-0.6344133300175979	-0.18044734354123232	1.708943179950975	-0.6218286310669509	-0.17036320348261283	1.583501485719914	-0.6344230984997424	-0.19964984280335024	1.5495505451765899	-0.5832989045036224	-0.19660775241897713	1.557616715245173	-0.5655409200482252	-0.16456421419181846	1.5728559201551906	-0.65203965887782	-0.15905922191028152	1.8454931518484214	-0.7462804910602524	-0.16280849415468335	1.7102630788244244	-0.7239961577439363	-0.15114848035154388	1.5727540421912236	-0.7319895147338441	-0.18805084487987245	1.5386134292146707	-0.6619305842583824	-0.1797568653195633	1.538552666577723	-0.6993251914161907	-0.1407099232104122	1.5586399651268295	-0.7444403930158714	-0.14216002721126658	2.0025132558617487	-0.7777222102282448	-0.16728821665849442	2.051019878590822	-0.7218234649669626	-0.1571105397190279	1.998897331523728	-0.7035179852467794	-0.18491454467890583	1.9430000573153892	-0.6072575022400514	-0.1838884593769546	1.9931361679942319	-0.6759855527494409	-0.13033857667370857	2.0062399741747483	-0.8473453660343738	-0.16672746313091352	1.9568400853819288	-0.7837071785190846	-0.19758531508643654	2.0147407063081553	-0.7405978304048193
62	2.066666666666667	-0.17084471738253265	1.8532657197725488	-0.6948480238062804	-0.18317708617756573	1.8519845447794956	-0.6361397144368093	-0.17775708042045368	1.7132861529870698	-0.6337307866777252	-0.17354427591816204	1.5806508370691799	-0.6350910032589014	-0.2030967985441148	1.5449669968788537	-0.5834799730660963	-0.20010730425678872	1.5532146472286437	-0.565608968450303	-0.16707045978337387	1.57146968024663	-0.6492931289151479	-0.1580681535137185	1.8524442674174053	-0.7559628162954872	-0.16229101017391093	1.71715120856509	-0.7373037985698828	-0.15229062670658472	1.5753452863424238	-0.7348132075903071	-0.1893458542190096	1.5406752720469992	-0.6649346352998282	-0.18267811124990213	1.5404546191008093	-0.7008808604951279	-0.1409206798897886	1.5577453051969954	-0.7434288338800618	-0.14220645320102349	2.003891690326848	-0.7781153352501945	-0.1683579552680931	2.0457638097984896	-0.7352488101891155	-0.1598471949525952	2.003695387905551	-0.6938549957348529	-0.18804421716615805	1.9447738050308272	-0.5995594324816509	-0.1827229422519438	1.976330808775051	-0.6487625090639751	-0.12485042234152559	2.0043354963602145	-0.8599698729774697	-0.17385079065295114	1.9560400179586153	-0.8110500652906677	-0.1914619271166966	1.9911731030090658	-0.7232275704930308
63	2.1	-0.17161123569373005	1.8492927302183904	-0.6974907340142518	-0.18104907635398407	1.850497540615726	-0.6382383415157383	-0.17584467221067057	1.7093954747108682	-0.6353032011396748	-0.17267036101104435	1.5806179636446378	-0.6318266752770015	-0.20330515880024025	1.5464827658981184	-0.5833080435685437	-0.20014855191697536	1.5535055060634635	-0.5655986401125249	-0.16681023941191603	1.5698398749435472	-0.6493623850633512	-0.1582790668285158	1.8486068186325249	-0.7555837128590852	-0.16238561503010066	1.714549719616185	-0.7370923022564094	-0.1522232635987964	1.5713042719770591	-0.7345695244328728	-0.18489053011637588	1.5409134744598825	-0.6695831325224789	-0.1785228445878177	1.539570582160292	-0.7049037387289835	-0.14311087443862638	1.5568980770163008	-0.7414082544960141	-0.13756804103331502	2.0040719391588646	-0.7829626230296379	-0.16482513822664915	2.0437807292666577	-0.7426189093266701	-0.15096185756598826	2.003843078519558	-0.7027790918994633	-0.19032140564332778	1.9447530822780013	-0.5973365208040505	-0.1753620285657339	1.979961989673346	-0.673754856910686	-0.12009587968585622	2.002871078719725	-0.8645123366879436	-0.164475128042227	1.9463973754639288	-0.8281462102347598	-0.17836704325729516	1.997301052353973	-0.7607486962583692
64	2.1333333333333333	-0.17021515732733372	1.8481779768983497	-0.7027342781396798	-0.18401702066324296	1.8479262731456316	-0.6387697668756481	-0.17598927903374753	1.7107842341754234	-0.6353609959963953	-0.17051611711468867	1.5806676085421287	-0.6341083209001009	-0.203093236307557	1.545003688514948	-0.5834587170017306	-0.19984901404951735	1.5518875842511524	-0.565779813624116	-0.16492679112537512	1.5687740543157145	-0.6510970924452475	-0.1565166862181832	1.8485271390313394	-0.7610856782490353	-0.1562113169809867	1.713646910714946	-0.7432613688886889	-0.15241255890450253	1.5723573356860285	-0.7343182493016873	-0.18831974819785444	1.539443517222421	-0.6698139601584577	-0.180758978812124	1.539153582936371	-0.7026308195107158	-0.1429590489934849	1.5560190941286356	-0.741277968524164	-0.13306322321224975	2.002667336793264	-0.7872658873328858	-0.16377747288327044	2.04188419155713	-0.7593229341542461	-0.14746799150187417	2.0052936792307237	-0.7108371301340011	-0.19504094258380889	1.9488999848732727	-0.6052826571189093	-0.17774443547255034	1.9906454040382604	-0.6937070478470783	-0.11775001399335229	2.002666542672091	-0.8667972485165919	-0.15725622151675445	1.9395552872197186	-0.8086865904757864	-0.17046267585617048	1.9999895106211745	-0.7750083795367712
65	2.1666666666666665	-0.16920908475743485	1.849831150067714	-0.7084154066246667	-0.1821737283047159	1.8506536158196871	-0.6415990863843688	-0.17590188585970445	1.7108681249002882	-0.643657034574409	-0.17051323052337172	1.580716574953795	-0.6341426517555643	-0.20550071488878216	1.5435006580093351	-0.5806264655691692	-0.202458798038519	1.55181534604136	-0.5627420245293524	-0.16506777811624018	1.5699488778997046	-0.6508966500845548	-0.15331055764366794	1.8476789415654211	-0.7686346987525424	-0.15536031532427563	1.7099498143056253	-0.7477129116752097	-0.1528016584692037	1.571745999988217	-0.7338920768784417	-0.18854208225050206	1.5403566539434494	-0.6698847178976265	-0.18105161713320442	1.5403303852318924	-0.7026702699114806	-0.2803583201090367	1.479544582565654	-1.2817116766681405	-0.13445043801287784	2.00301938745314	-0.793242530462179	-0.16059072741823216	2.0445775735883918	-0.7694000535518426	-0.15013476573146867	2.007757341445795	-0.7115334173224451	-1.583713991777306	1.869101797488398	0.8823424614972354	-0.17793640982282194	1.994121459710174	-0.7056409520108877	-0.1145416181929742	2.0004148813655007	-0.8772099573430685	-0.15911742469623527	1.9350808916971103	-0.837298609512372	-0.17581512519973008	1.9835555770112876	-0.7917600520626243
66	2.2	-0.16861349692483008	1.8455513785796358	-0.7080343897781574	-0.18261142812171546	1.845129399670666	-0.643890953526017	-0.17535314923253617	1.7122032022327638	-0.6445712305527443	-0.17368213897447796	1.5819216081909246	-0.6349057828604004	-0.20122467957469664	1.546528433204467	-0.5854580208414993	-0.1980673135404998	1.5535127732596272	-0.5678082657795237	-0.1652124321489747	1.570228333917136	-0.6508519484601352	-0.153529935729167	1.8448206994615863	-0.7715029096642555	-0.15266564077230338	1.7128282392380068	-0.7508569066260209	-0.15322679713060516	1.5754680525548952	-0.7379307651928393	-0.1849959198486595	1.541126877032065	-0.6695154423917709	-0.17888599945243322	1.5415058413815488	-0.7046312353025002	-0.14408482393197128	1.5575682634725072	-0.7443726753083669	-0.13667782375588566	2.003839102892419	-0.7909949003441965	-0.15896421740697136	2.047177322032384	-0.7749905948278455	-0.1525437261207605	2.0062832335351413	-0.7091684100558237	-0.1976946616305126	1.9503753905346914	-0.6148684844933455	-0.17135115436085266	1.9870063098567277	-0.7019302753245316	-0.11731928383765376	2.004259996296917	-0.8781686156059995	-0.14903048635286728	1.9437575060440382	-0.8843001045066048	-0.20051285850365708	1.9644484404950637	-0.8022190299747693
67	2.2333333333333334	-0.16727220228695167	1.8497669869048314	-0.7139644365178319	-0.18345930909096644	1.8491899595308119	-0.6478211613694799	-0.1784446722975174	1.716150875719196	-0.6459232974395721	-0.1712327292840967	1.583458132270425	-0.6377497792493022	-0.20425037529009082	1.5463844700353788	-0.5865964959741132	-0.2012523169624119	1.5547152348654611	-0.568651732038092	-0.1647562040011669	1.5714837148343999	-0.6515585673825239	-0.1542990723905662	1.8488951234650903	-0.7751646363261957	-0.15129335069376088	1.7142983732231714	-0.756374727690075	-0.15334086562534616	1.576106986378247	-0.7379885470244013	-0.18604259035136564	1.5424709981358518	-0.672643520775434	-0.17717772280903113	1.5427971076845577	-0.7107156654205976	-0.28049281099610945	1.480909732153877	-1.2812732142138912	-0.13374642209968587	2.0029904888660814	-0.7902807508914576	-0.16201091024239395	2.048385106831972	-0.7763401531210028	-0.15395419793727358	2.0035561815040377	-0.7035137446206653	-0.19964767542350265	1.9506975856802353	-0.6215797583507428	-0.17518936771688112	1.998536199063929	-0.7283237292206608	-0.11357470464884807	2.0039219675524906	-0.8745875008613265	-0.15057205388486689	1.9427828169660755	-0.8786527468170257	-0.14417525191600722	1.9975621267515817	-0.8676414245527972
